<svg width="50" height="50" viewBox="0 0 50 50" fill="none" xmlns="http://www.w3.org/2000/svg">
<circle cx="25" cy="25" r="25" fill="white"/>
<path d="M24.9998 11.5789C27.4852 11.5789 29.511 13.5468 29.6039 16.0095L29.6072 16.1862H35.4165C35.9696 16.1862 36.4181 16.6347 36.4181 17.1878C36.4181 17.7064 36.0239 18.133 35.5189 18.1843L35.4165 18.1894H34.5423L33.1776 36.2742C33.0435 38.0505 31.5631 39.4234 29.7818 39.4234H20.2179C18.4365 39.4234 16.9561 38.0505 16.8221 36.2742L15.4565 18.1894H14.5831C14.0645 18.1894 13.638 17.7953 13.5867 17.2902L13.5815 17.1878C13.5815 16.6692 13.9757 16.2427 14.4807 16.1914L14.5831 16.1862H20.3924C20.3924 13.6416 22.4552 11.5789 24.9998 11.5789ZM32.5336 18.1894H17.4661L18.8196 36.1235C18.8748 36.8549 19.4844 37.4202 20.2179 37.4202H29.7818C30.5153 37.4202 31.1248 36.8549 31.18 36.1235L32.5336 18.1894ZM27.604 22.3962C28.1226 22.3962 28.5491 22.7903 28.6004 23.2954L28.6056 23.3978V32.2119C28.6056 32.765 28.1571 33.2135 27.604 33.2135C27.0854 33.2135 26.6588 32.8193 26.6075 32.3143L26.6024 32.2119V23.3978C26.6024 22.8446 27.0508 22.3962 27.604 22.3962ZM22.3956 22.3962C22.9142 22.3962 23.3408 22.7903 23.3921 23.2954L23.3972 23.3978V32.2119C23.3972 32.765 22.9488 33.2135 22.3956 33.2135C21.877 33.2135 21.4505 32.8193 21.3992 32.3143L21.394 32.2119V23.3978C21.394 22.8446 21.8425 22.3962 22.3956 22.3962ZM24.9998 13.5821C23.6112 13.5821 22.4764 14.669 22.3998 16.0385L22.3956 16.1862H27.604C27.604 14.748 26.4381 13.5821 24.9998 13.5821Z" fill="#211F1C"/>
</svg>
